<svg width="48" height="48" viewBox="0 0 48 48" fill="none" xmlns="http://www.w3.org/2000/svg">
<path d="M18 44C17.4696 44 16.9609 43.7893 16.5858 43.4142C16.2107 43.0391 16 42.5304 16 42V36H8C6.93913 36 5.92172 35.5786 5.17157 34.8284C4.42143 34.0783 4 33.0609 4 32V8C4 6.93913 4.42143 5.92172 5.17157 5.17157C5.92172 4.42143 6.93913 4 8 4H40C41.0609 4 42.0783 4.42143 42.8284 5.17157C43.5786 5.92172 44 6.93913 44 8V32C44 33.0609 43.5786 34.0783 42.8284 34.8284C42.0783 35.5786 41.0609 36 40 36H27.8L20.4 43.42C20 43.8 19.5 44 19 44H18ZM20 32V38.16L26.16 32H40V8H8V32H20Z" fill="#231F20"/>
</svg>
