<svg width="48" height="48" viewBox="0 0 48 48" fill="none" xmlns="http://www.w3.org/2000/svg">
<path d="M27.2202 24.4861C27.2081 25.1197 27.0082 25.7354 26.6458 26.2552C26.2834 26.775 25.7748 27.1755 25.1845 27.406C24.5942 27.6364 23.9488 27.6864 23.3301 27.5497C22.7113 27.4129 22.1471 27.0955 21.709 26.6377C21.2708 26.1798 20.9785 25.6023 20.869 24.9781C20.7594 24.354 20.8377 23.7113 21.0938 23.1317C21.3499 22.5521 21.7724 22.0616 22.3076 21.7223C22.8428 21.3831 23.4667 21.2104 24.1002 21.2261C24.942 21.2573 25.7386 21.6151 26.321 22.2236C26.9035 22.8322 27.226 23.6437 27.2202 24.4861Z" fill="#231F20"/>
<path d="M29.5259 14.4661H18.6759C17.6023 14.4661 16.5727 14.8925 15.8136 15.6517C15.0544 16.4108 14.6279 17.4405 14.6279 18.5141V29.6081C14.6279 30.1397 14.7326 30.666 14.9361 31.1572C15.1395 31.6483 15.4377 32.0945 15.8136 32.4704C16.1895 32.8463 16.6357 33.1445 17.1268 33.3479C17.618 33.5514 18.1443 33.6561 18.6759 33.6561H29.5259C30.0575 33.6561 30.5839 33.5514 31.075 33.3479C31.5662 33.1445 32.0124 32.8463 32.3883 32.4704C32.7642 32.0945 33.0624 31.6483 33.2658 31.1572C33.4692 30.666 33.5739 30.1397 33.5739 29.6081V18.5341C33.576 18.0009 33.4729 17.4726 33.2705 16.9794C33.068 16.4862 32.7703 16.0378 32.3942 15.6599C32.0182 15.282 31.5712 14.982 31.079 14.7772C30.5868 14.5723 30.0591 14.4666 29.5259 14.4661ZM24.0999 29.9121C23.0259 29.9363 21.9689 29.64 21.064 29.0609C20.1591 28.4818 19.4472 27.6462 19.0193 26.6608C18.5914 25.6754 18.4668 24.5848 18.6614 23.5282C18.856 22.4716 19.361 21.497 20.1119 20.7287C20.8629 19.9604 21.8257 19.4333 22.8776 19.2146C23.9294 18.9959 25.0226 19.0956 26.0175 19.501C27.0125 19.9063 27.8641 20.5989 28.4637 21.4904C29.0633 22.3818 29.3837 23.4317 29.3839 24.5061C29.3926 25.2082 29.2628 25.9051 29.0019 26.557C28.7409 27.2088 28.3539 27.8028 27.8631 28.305C27.3723 28.8071 26.7873 29.2075 26.1416 29.4833C25.4958 29.759 24.8021 29.9048 24.0999 29.9121ZM29.9719 19.1021C29.84 19.1021 29.7093 19.0758 29.5876 19.0247C29.466 18.9736 29.3557 18.8987 29.2633 18.8045C29.1709 18.7102 29.0983 18.5985 29.0496 18.4758C29.001 18.3532 28.9773 18.222 28.9799 18.0901C28.9799 17.8217 29.0865 17.5643 29.2763 17.3745C29.4661 17.1847 29.7235 17.0781 29.9919 17.0781C30.2603 17.0781 30.5177 17.1847 30.7075 17.3745C30.8973 17.5643 31.0039 17.8217 31.0039 18.0901C31.0079 18.2329 30.981 18.375 30.9249 18.5065C30.8689 18.638 30.7851 18.7558 30.6793 18.8519C30.5735 18.948 30.4482 19.0201 30.312 19.0633C30.1757 19.1065 30.0318 19.1197 29.8899 19.1021H29.9719Z" fill="#231F20"/>
<path d="M24.0998 4.00001C18.7954 3.97348 13.6978 6.05519 9.92834 9.78716C6.15886 13.5191 4.02628 18.5957 3.99976 23.9C3.97324 29.2043 6.05494 34.302 9.78692 38.0714C13.5189 41.8409 18.5954 43.9735 23.8998 44C26.5262 44.0131 29.1295 43.5088 31.561 42.5159C33.9926 41.5229 36.2047 40.0607 38.0712 38.2129C39.9376 36.365 41.4219 34.1675 42.4391 31.7461C43.4563 29.3246 43.9866 26.7264 43.9998 24.1C44.0129 21.4736 43.5086 18.8703 42.5156 16.4387C41.5227 14.0072 40.0605 11.795 38.2126 9.92858C36.3647 8.06212 34.1673 6.57791 31.7458 5.56068C29.3243 4.54346 26.7262 4.01314 24.0998 4.00001ZM36.2458 29.404C36.2513 30.3013 36.0788 31.1907 35.738 32.0208C35.3973 32.8509 34.8952 33.605 34.2608 34.2396C33.6264 34.8742 32.8724 35.3765 32.0424 35.7175C31.2124 36.0585 30.323 36.2313 29.4258 36.226H18.7778C17.8805 36.2316 16.991 36.059 16.161 35.7183C15.3309 35.3775 14.5767 34.8754 13.9422 34.241C13.3076 33.6066 12.8053 32.8526 12.4643 32.0226C12.1233 31.1927 11.9505 30.3033 11.9558 29.406V18.756C11.9502 17.8587 12.1228 16.9693 12.4635 16.1392C12.8042 15.3092 13.3064 14.555 13.9407 13.9204C14.5751 13.2858 15.3292 12.7835 16.1591 12.4425C16.9891 12.1015 17.8785 11.9287 18.7758 11.934H29.4258C30.3229 11.9287 31.2121 12.1015 32.0419 12.4423C32.8718 12.7832 33.6257 13.2853 34.2601 13.9197C34.8944 14.5541 35.3966 15.308 35.7374 16.1378C36.0783 16.9677 36.2511 17.8569 36.2458 18.754V29.404Z" fill="#231F20"/>
</svg>
