<svg width="48" height="48" viewBox="0 0 48 48" fill="none" xmlns="http://www.w3.org/2000/svg">
<path d="M37.9998 22.0001H15.6598L25.4198 12.2401C26.1999 11.4601 26.1999 10.1801 25.4198 9.40007C25.2348 9.21467 25.015 9.06757 24.7731 8.96721C24.5312 8.86684 24.2718 8.81519 24.0098 8.81519C23.7479 8.81519 23.4885 8.86684 23.2466 8.96721C23.0047 9.06757 22.7849 9.21467 22.5998 9.40007L9.41985 22.5801C9.23444 22.7651 9.08735 22.9849 8.98698 23.2268C8.88662 23.4688 8.83496 23.7281 8.83496 23.9901C8.83496 24.252 8.88662 24.5114 8.98698 24.7533C9.08735 24.9953 9.23444 25.215 9.41985 25.4001L22.5998 38.5801C22.785 38.7652 23.0048 38.9121 23.2468 39.0123C23.4887 39.1125 23.748 39.1641 24.0098 39.1641C24.2717 39.1641 24.531 39.1125 24.7729 39.0123C25.0149 38.9121 25.2347 38.7652 25.4198 38.5801C25.605 38.3949 25.7519 38.1751 25.8521 37.9332C25.9523 37.6912 26.0039 37.4319 26.0039 37.1701C26.0039 36.9082 25.9523 36.6489 25.8521 36.407C25.7519 36.1651 25.605 35.9452 25.4198 35.7601L15.6598 26.0001H37.9998C39.0998 26.0001 39.9998 25.1001 39.9998 24.0001C39.9998 22.9001 39.0998 22.0001 37.9998 22.0001Z" fill="#231F20"/>
</svg>
