<svg width="48" height="48" viewBox="0 0 48 48" fill="none" xmlns="http://www.w3.org/2000/svg">
<path d="M43.7999 15.78L41.6999 9.04C41.2599 7.24 39.6999 6 37.8799 6H10.0999C8.29991 6 6.71991 7.26 6.29991 9.04L4.19991 15.78C3.27991 19.72 5.89991 22 5.99991 22.12V38C5.99991 40.2 7.79991 42 9.99991 42H37.9999C40.1999 42 41.9999 40.2 41.9999 38V22.12C44.2399 19.88 44.1799 17.3 43.7999 15.78ZM25.9999 10H29.9199L30.9999 17.04C31.1799 18.46 30.2199 20 28.4399 20C27.0999 20 25.9999 18.82 25.9999 17.38V10ZM12.8799 17.72C12.7199 19.02 11.6799 20 10.4599 20C8.59991 20 7.75991 18.06 8.07991 16.72L10.0999 10H14.0399L12.8799 17.72ZM21.9999 17.38C21.9999 18.82 20.8999 20 19.4199 20C17.9199 20 16.8199 18.6 16.9799 17.04L18.0799 10H21.9999V17.38ZM37.5399 20C36.3199 20 35.2599 19.02 35.1199 17.72L33.9599 10L37.8199 9.98L39.9199 16.72C40.2399 18.06 39.4199 20 37.5399 20Z" fill="#231F20"/>
</svg>
