<svg width="48" height="48" viewBox="0 0 48 48" fill="none" xmlns="http://www.w3.org/2000/svg">
<path d="M18 4H36C38.2 4 40 5.8 40 8V40C40 42.2 38.2 44 36 44H18C15.8 44 14 42.2 14 40V38C14 37.4696 14.2107 36.9609 14.5858 36.5858C14.9609 36.2107 15.4696 36 16 36C16.5304 36 17.0391 36.2107 17.4142 36.5858C17.7893 36.9609 18 37.4696 18 38V40H36V8H18V10C18 10.5304 17.7893 11.0391 17.4142 11.4142C17.0391 11.7893 16.5304 12 16 12C15.4696 12 14.9609 11.7893 14.5858 11.4142C14.2107 11.0391 14 10.5304 14 10V8C14 5.8 15.8 4 18 4Z" fill="#231F20"/>
<path d="M21.59 32.59C22.37 33.37 23.63 33.37 24.41 32.59L31.586 25.414C31.9609 25.039 32.1716 24.5303 32.1716 24C32.1716 23.4697 31.9609 22.9611 31.586 22.586L24.41 15.41C24.0298 15.0664 23.5321 14.882 23.0199 14.8949C22.5076 14.9079 22.0198 15.1171 21.6575 15.4795C21.2951 15.8418 21.0858 16.3296 21.0729 16.8419C21.06 17.3542 21.2444 17.8518 21.588 18.232L25.34 22H8C7.46957 22 6.96086 22.2107 6.58579 22.5858C6.21071 22.9609 6 23.4696 6 24C6 24.5304 6.21071 25.0391 6.58579 25.4142C6.96086 25.7893 7.46957 26 8 26H25.34L21.588 29.768C21.2152 30.1431 21.006 30.6506 21.0064 31.1794C21.0068 31.7083 21.2166 32.2155 21.59 32.59Z" fill="#231F20"/>
</svg>
