<svg width="48" height="48" viewBox="0 0 48 48" fill="none" xmlns="http://www.w3.org/2000/svg">
<path d="M34 40H8V14C8 12.9 7.1 12 6 12C4.9 12 4 12.9 4 14V40C4 42.2 5.8 44 8 44H34C35.1 44 36 43.1 36 42C36 40.9 35.1 40 34 40Z" fill="#231F20"/>
<path d="M40 4H16C13.8 4 12 5.8 12 8V32C12 34.2 13.8 36 16 36H40C42.2 36 44 34.2 44 32V8C44 5.8 42.2 4 40 4ZM28.02 30C26.84 30 25.92 29.06 25.92 27.9C25.92 26.72 26.86 25.82 28.02 25.82C29.2 25.82 30.1 26.72 30.1 27.9C30.08 29.06 29.2 30 28.02 30ZM33.02 17.66C31.76 19.52 30.56 20.08 29.9 21.28C29.74 21.56 29.64 21.8 29.58 22.26C29.48 23.04 28.86 23.62 28.08 23.62H28.02C27.14 23.62 26.44 22.86 26.52 21.98C26.58 21.42 26.7 20.84 27.02 20.3C27.84 18.84 29.38 17.98 30.28 16.7C31.24 15.34 30.7 12.82 28 12.82C26.78 12.82 25.98 13.46 25.48 14.22C25.1 14.8 24.34 15 23.7 14.72C22.86 14.36 22.5 13.32 23.02 12.58C24.04 11.1 25.74 10 27.98 10C30.44 10 32.14 11.12 33 12.52C33.74 13.74 34.16 15.98 33.02 17.66Z" fill="#231F20"/>
</svg>
