<svg width="48" height="48" viewBox="0 0 48 48" fill="none" xmlns="http://www.w3.org/2000/svg">
<path d="M30.7801 29.12C27.4201 27.4 23.0601 26 18.0001 26C12.9401 26 8.58013 27.4 5.22013 29.12C4.24425 29.6226 3.42673 30.3859 2.85833 31.325C2.28993 32.2641 1.99287 33.3423 2.00013 34.44V40H34.0001V34.44C34.0001 32.2 32.7801 30.14 30.7801 29.12ZM18.0001 24C22.4201 24 26.0001 20.42 26.0001 16C26.0001 11.58 22.4201 8 18.0001 8C13.5801 8 10.0001 11.58 10.0001 16C10.0001 20.42 13.5801 24 18.0001 24ZM40.0001 18V14C40.0001 12.9 39.1001 12 38.0001 12C36.9001 12 36.0001 12.9 36.0001 14V18H32.0001C30.9001 18 30.0001 18.9 30.0001 20C30.0001 21.1 30.9001 22 32.0001 22H36.0001V26C36.0001 27.1 36.9001 28 38.0001 28C39.1001 28 40.0001 27.1 40.0001 26V22H44.0001C45.1001 22 46.0001 21.1 46.0001 20C46.0001 18.9 45.1001 18 44.0001 18H40.0001Z" fill="#231F20"/>
</svg>
