<svg width="48" height="48" viewBox="0 0 48 48" fill="none" xmlns="http://www.w3.org/2000/svg">
<path d="M8 32C10.2091 32 12 30.2091 12 28C12 25.7909 10.2091 24 8 24C5.79086 24 4 25.7909 4 28C4 30.2091 5.79086 32 8 32Z" fill="#231F20"/>
<path d="M2.44 35.16C1.71542 35.4697 1.09785 35.9855 0.664036 36.6434C0.230225 37.3012 -0.000687372 38.072 1.53699e-06 38.86V40C1.53699e-06 41.1 0.900001 42 2 42H9V38.78C9 37.12 9.46 35.56 10.26 34.2C9.52 34.08 8.78 34 8 34C6.02 34 4.14 34.42 2.44 35.16Z" fill="#231F20"/>
<path d="M40 32C42.2091 32 44 30.2091 44 28C44 25.7909 42.2091 24 40 24C37.7909 24 36 25.7909 36 28C36 30.2091 37.7909 32 40 32Z" fill="#231F20"/>
<path d="M45.5601 35.16C43.8063 34.3948 41.9135 33.9999 40.0001 34C39.2201 34 38.4801 34.08 37.7401 34.2C38.5401 35.56 39.0001 37.12 39.0001 38.78V42H46.0001C47.1001 42 48.0001 41.1 48.0001 40V38.86C48.0001 37.24 47.0401 35.8 45.5601 35.16ZM32.4801 33.3C30.1401 32.26 27.2601 31.5 24.0001 31.5C20.7401 31.5 17.8601 32.28 15.5201 33.3C14.4665 33.7755 13.5733 34.5462 12.9486 35.5187C12.3238 36.4913 11.9944 37.6241 12.0001 38.78V40C12.0001 41.1 12.9001 42 14.0001 42H34.0001C35.1001 42 36.0001 41.1 36.0001 40V38.78C36.0001 36.42 34.6401 34.26 32.4801 33.3ZM18.0001 24C18.0001 27.32 20.6801 30 24.0001 30C27.3201 30 30.0001 27.32 30.0001 24C30.0001 20.68 27.3201 18 24.0001 18C20.6801 18 18.0001 20.68 18.0001 24Z" fill="#231F20"/>
<path d="M4.96 21.72C4.34 20.2 4 18.72 4 17.2C4 12.04 8.04 8 13.2 8C18.56 8 20.84 11.48 24 15.18C27.14 11.52 29.4 8 34.8 8C39.96 8 44 12.04 44 17.2C44 18.72 43.66 20.2 43.04 21.72C44.34 22.34 45.4 23.36 46.1 24.6C47.3 22.2 48 19.76 48 17.2C48 9.8 42.2 4 34.8 4C30.62 4 26.62 5.94 24 9.02C21.38 5.94 17.38 4 13.2 4C5.8 4 0 9.8 0 17.2C0 19.76 0.7 22.2 1.92 24.6C2.62 23.36 3.68 22.34 4.96 21.72Z" fill="#231F20"/>
</svg>
