<svg width="48" height="48" viewBox="0 0 48 48" fill="none" xmlns="http://www.w3.org/2000/svg">
<path d="M24.18 5.81991C20.16 1.79991 14.14 0.979909 9.30001 3.33991L16.56 10.5999C17.34 11.3799 17.34 12.6399 16.56 13.4199L13.38 16.5999C12.6 17.3999 11.34 17.3999 10.56 16.5999L3.30001 9.33991C0.960007 14.1999 1.78001 20.1799 5.80001 24.1999C7.57055 25.9638 9.81135 27.1809 12.2549 27.7057C14.6983 28.2306 17.2413 28.0411 19.58 27.1599L35.5 43.0799C35.9858 43.5696 36.5638 43.9583 37.2005 44.2235C37.8373 44.4887 38.5202 44.6253 39.21 44.6253C39.8998 44.6253 40.5828 44.4887 41.2195 44.2235C41.8563 43.9583 42.4342 43.5696 42.92 43.0799C43.4097 42.5941 43.7984 42.0162 44.0636 41.3794C44.3288 40.7427 44.4654 40.0597 44.4654 39.3699C44.4654 38.6801 44.3288 37.9972 44.0636 37.3604C43.7984 36.7237 43.4097 36.1457 42.92 35.6599L27.08 19.7999C28.92 15.1199 27.96 9.59991 24.18 5.81991Z" fill="#231F20"/>
</svg>
