<svg width="48" height="48" viewBox="0 0 48 48" fill="none" xmlns="http://www.w3.org/2000/svg">
<path d="M21.54 30.4599C21.7316 30.2677 21.8821 30.0385 21.9823 29.7863C22.0825 29.534 22.1303 29.264 22.1228 28.9927C22.1154 28.7214 22.0527 28.4545 21.9388 28.2082C21.8248 27.9618 21.6619 27.7413 21.46 27.5599C16.34 22.9399 13.3 19.7999 14.14 16.6599C14.58 15.0399 16.02 13.9999 17.7 13.9999C19.92 13.9999 20.78 15.2999 23.06 17.9999H24.92C27.16 15.3799 27.98 13.9999 30.28 13.9999C32.02 13.9999 33.38 15.0799 33.82 16.6399C34.52 16.5599 35.18 16.5199 35.82 16.5199C36.54 16.5199 37.22 16.5799 37.88 16.6799C37.4 12.8599 34.26 9.99991 30.3 9.99991C30.06 9.99991 29.84 10.0599 29.6 10.0799C30.12 8.65991 30.22 7.01991 29.24 5.21991C28.38 3.59991 26.8 2.35991 25 2.07991C21.24 1.47991 18 4.35991 18 7.99991C18 8.73991 18.16 9.41991 18.4 10.0799C18.16 10.0599 17.94 9.99991 17.7 9.99991C13.38 9.99991 10 13.3799 10 17.6999C10 22.1599 13.46 25.7199 18.8 30.5199C19.58 31.2399 20.8 31.1999 21.54 30.4599Z" fill="#231F20"/>
<path d="M47.0402 34.5C45.9602 32.76 44.5002 32.04 43.0202 31.78C43.1602 31.58 43.3202 31.42 43.4402 31.22C45.6002 27.48 44.3602 22.86 40.6202 20.7C36.7602 18.48 31.9402 19.7 25.1202 21.9C24.1002 22.22 23.5402 23.3 23.8002 24.32C24.1002 25.42 25.2602 26.06 26.3602 25.7C32.9202 23.58 37.1602 22.5 39.4602 24.8C40.6402 25.98 40.8202 27.76 39.9802 29.22C38.8602 31.14 37.3202 31.22 33.8402 31.86L32.9002 33.48C34.0602 36.72 34.8402 38.14 33.6802 40.12C32.6202 41.94 30.4602 42.52 28.6202 41.48C28.5002 41.42 28.4002 41.3 28.2802 41.22C27.6802 42.56 27.0002 43.7 26.2202 44.68V44.7C30.0202 47.18 34.9002 45.98 37.1402 42.12C37.2602 41.92 37.3202 41.7 37.4202 41.48C37.8602 42.02 38.3802 42.5 39.0202 42.86C42.1802 44.68 46.3002 43.32 47.6402 39.76C48.2802 38.04 48.0002 36.06 47.0402 34.5Z" fill="#231F20"/>
<path d="M24.1999 30.0799C22.7599 36.8399 21.5599 41.0399 18.4199 41.8799C16.7999 42.3199 15.1799 41.5799 14.3399 40.1199C13.2199 38.1999 13.9399 36.7999 15.1199 33.4799L14.1999 31.8599C10.7999 31.2399 9.19995 31.1999 8.05995 29.2199C6.99995 27.3999 7.57995 25.2199 9.41995 24.1599C9.59995 24.0599 9.79995 23.9999 9.99995 23.9399C9.45995 23.0999 8.99995 22.1999 8.65995 21.1999C8.17995 20.9799 7.93995 20.8799 7.45995 20.6799C6.57114 21.1754 5.79038 21.8435 5.16359 22.6451C4.5368 23.4467 4.07663 24.3656 3.81016 25.3476C3.54368 26.3296 3.47628 27.3551 3.61191 28.3635C3.74755 29.372 4.08348 30.3432 4.59995 31.2199C4.71994 31.4199 4.87995 31.5799 5.01995 31.7799C3.51995 32.0399 2.05995 32.7599 0.999945 34.4999C0.0399454 36.0599 -0.240055 38.0399 0.399945 39.7599C0.704701 40.5769 1.18386 41.3176 1.80405 41.9305C2.42425 42.5434 3.17057 43.0138 3.99108 43.3089C4.81158 43.6039 5.68653 43.7166 6.55503 43.6391C7.42352 43.5616 8.26468 43.2957 9.01995 42.8599C9.65995 42.4999 10.1799 42.0199 10.6199 41.4799C10.7199 41.6999 10.7799 41.9199 10.8999 42.1199C13.0599 45.8599 17.6799 47.0999 21.4199 44.9399C25.2799 42.7199 26.6399 37.9199 28.1399 30.9199C28.2462 30.4196 28.156 29.8976 27.8879 29.4619C27.6199 29.0263 27.1945 28.7105 26.6999 28.5799C26.4371 28.5054 26.1618 28.4855 25.891 28.5215C25.6203 28.5575 25.3597 28.6486 25.1255 28.7891C24.8912 28.9297 24.6882 29.1167 24.5291 29.3387C24.3699 29.5607 24.2579 29.813 24.1999 30.0799Z" fill="#231F20"/>
</svg>
