<svg width="48" height="48" viewBox="0 0 48 48" fill="none" xmlns="http://www.w3.org/2000/svg">
<path d="M43.9998 29.2C43.9998 30.6 42.6598 31.6 41.3198 31.22L35.0198 29.36L20.9998 15.34V7C20.9998 5.34 22.3398 4 23.9998 4C25.6598 4 26.9998 5.34 26.9998 7V18L42.9598 27.4C43.5998 27.76 43.9998 28.46 43.9998 29.2ZM26.9998 27L19.1198 19.12L7.01976 7.02C6.64581 6.64604 6.13862 6.43596 5.60976 6.43596C5.08091 6.43596 4.57372 6.64604 4.19976 7.02C3.82581 7.39396 3.61572 7.90115 3.61572 8.43C3.61572 8.95885 3.82581 9.46604 4.19976 9.84L15.5398 21.18L5.03976 27.4C4.39976 27.76 3.99976 28.46 3.99976 29.2C3.99976 30.6 5.33976 31.6 6.67976 31.22L20.9998 27.02V38L16.4798 40.7C16.1798 40.88 15.9998 41.22 15.9998 41.56V42.72C15.9998 43.38 16.6198 43.86 17.2398 43.7L23.0798 42.24L23.9998 42L24.7598 42.18L25.5998 42.4L29.3998 43.36L30.7398 43.7C31.3798 43.86 31.9798 43.38 31.9798 42.72V41.56C31.9798 41.2 31.7998 40.88 31.4998 40.7L26.9998 38V32.66L38.1398 43.8C38.5137 44.174 39.0209 44.384 39.5498 44.384C40.0786 44.384 40.5858 44.174 40.9598 43.8C41.3337 43.426 41.5438 42.9189 41.5438 42.39C41.5438 41.8611 41.3337 41.354 40.9598 40.98L26.9998 27Z" fill="#231F20"/>
</svg>
