<svg width="48" height="48" viewBox="0 0 48 48" fill="none" xmlns="http://www.w3.org/2000/svg">
<path d="M6 22C3.8 22 2 23.8 2 26V40C2 42.2 3.8 44 6 44C8.2 44 10 42.2 10 40V26C10 23.8 8.2 22 6 22ZM20 10.6C20 6.9 22.9 4 26.6 4C28.68 4 30.7 4.98 32 6.5C33.3 4.98 35.32 4 37.4 4C41.1 4 44 6.9 44 10.6C44 14.8 39 19.62 33.34 24.78C32.9713 25.1173 32.4897 25.3044 31.99 25.3044C31.4903 25.3044 31.0087 25.1173 30.64 24.78C25 19.62 20 14.8 20 10.6ZM39.98 34H26.32C26.0948 33.9974 25.8717 33.9569 25.66 33.88L22.72 32.86C22.5973 32.8174 22.4843 32.7509 22.3876 32.6643C22.2909 32.5777 22.2123 32.4727 22.1565 32.3555C22.1006 32.2383 22.0687 32.1111 22.0624 31.9814C22.0562 31.8517 22.0757 31.7221 22.12 31.6C22.3 31.08 22.88 30.8 23.4 31L25.64 31.86C25.86 31.94 26.12 32 26.36 32H31.62C32.92 32 33.98 30.94 33.98 29.64C33.98 28.66 33.36 27.78 32.44 27.42L18.6 22.26C18.16 22.08 17.68 22 17.2 22H14V40.04L26.74 43.66C27.56 43.9 28.44 43.86 29.24 43.56L44 38C44 35.78 42.2 34 39.98 34Z" fill="#231F20"/>
</svg>
