<svg width="48" height="48" viewBox="0 0 48 48" fill="none" xmlns="http://www.w3.org/2000/svg">
<path d="M24 4C12.96 4 4 12.96 4 24C4 35.04 12.96 44 24 44C35.04 44 44 35.04 44 24C44 12.96 35.04 4 24 4ZM26 38H22V34H26V38ZM30.14 22.5L28.34 24.34C27.34 25.36 26.62 26.28 26.26 27.72C26.1 28.36 26 29.08 26 30H22V29C21.9992 27.9491 22.2054 26.9084 22.6069 25.9372C23.0084 24.966 23.5973 24.0835 24.34 23.34L26.82 20.82C27.74 19.94 28.18 18.62 27.92 17.22C27.7813 16.5042 27.4487 15.8403 26.9585 15.3007C26.4682 14.7611 25.8392 14.3665 25.14 14.16C22.92 13.54 20.86 14.8 20.2 16.7C19.96 17.44 19.34 18 18.56 18H17.96C16.8 18 16 16.88 16.32 15.76C16.7494 14.3012 17.5847 12.9945 18.7285 11.9924C19.8723 10.9902 21.2774 10.3339 22.78 10.1C25.82 9.62 28.72 11.2 30.52 13.7C32.88 16.96 32.18 20.46 30.14 22.5Z" fill="#231F20"/>
</svg>
