<svg width="48" height="48" viewBox="0 0 48 48" fill="none" xmlns="http://www.w3.org/2000/svg">
<path d="M12 14C12 15.1 12.9 16 14 16H29.18L11.42 33.76C11.2348 33.9452 11.0879 34.165 10.9877 34.4069C10.8875 34.6488 10.8359 34.9081 10.8359 35.17C10.8359 35.4319 10.8875 35.6912 10.9877 35.9331C11.0879 36.175 11.2348 36.3948 11.42 36.58C11.6051 36.7652 11.825 36.912 12.0669 37.0123C12.3088 37.1125 12.5681 37.164 12.83 37.164C13.0918 37.164 13.3511 37.1125 13.5931 37.0123C13.835 36.912 14.0548 36.7652 14.24 36.58L32 18.82V34C32 35.1 32.9 36 34 36C35.1 36 36 35.1 36 34V14C36 12.9 35.1 12 34 12H14C12.9 12 12 12.9 12 14Z" fill="#231F20"/>
</svg>
