<svg width="48" height="48" viewBox="0 0 48 48" fill="none" xmlns="http://www.w3.org/2000/svg">
<path d="M34 4C32.9 4 32 4.9 32 6V8H16V6C16 4.9 15.1 4 14 4C12.9 4 12 4.9 12 6V8H10C7.78 8 6.02 9.8 6.02 12L6 40C6 41.0609 6.42143 42.0783 7.17157 42.8284C7.92172 43.5786 8.93913 44 10 44H38C40.2 44 42 42.2 42 40V12C42 9.8 40.2 8 38 8H36V6C36 4.9 35.1 4 34 4ZM38 40H10V20H38V40ZM22 26C22 24.9 22.9 24 24 24C25.1 24 26 24.9 26 26C26 27.1 25.1 28 24 28C22.9 28 22 27.1 22 26ZM14 26C14 24.9 14.9 24 16 24C17.1 24 18 24.9 18 26C18 27.1 17.1 28 16 28C14.9 28 14 27.1 14 26ZM30 26C30 24.9 30.9 24 32 24C33.1 24 34 24.9 34 26C34 27.1 33.1 28 32 28C30.9 28 30 27.1 30 26ZM22 34C22 32.9 22.9 32 24 32C25.1 32 26 32.9 26 34C26 35.1 25.1 36 24 36C22.9 36 22 35.1 22 34ZM14 34C14 32.9 14.9 32 16 32C17.1 32 18 32.9 18 34C18 35.1 17.1 36 16 36C14.9 36 14 35.1 14 34ZM30 34C30 32.9 30.9 32 32 32C33.1 32 34 32.9 34 34C34 35.1 33.1 36 32 36C30.9 36 30 35.1 30 34Z" fill="#231F20"/>
</svg>
