<svg width="48" height="48" viewBox="0 0 48 48" fill="none" xmlns="http://www.w3.org/2000/svg">
<path d="M29.4198 13.4201C29.2348 13.2347 29.015 13.0876 28.7731 12.9872C28.5312 12.8869 28.2718 12.8352 28.0098 12.8352C27.7479 12.8352 27.4885 12.8869 27.2466 12.9872C27.0047 13.0876 26.7849 13.2347 26.5998 13.4201L17.4198 22.6001C17.2344 22.7851 17.0873 23.0049 16.987 23.2468C16.8866 23.4888 16.835 23.7482 16.835 24.0101C16.835 24.272 16.8866 24.5314 16.987 24.7733C17.0873 25.0153 17.2344 25.2351 17.4198 25.4201L26.5998 34.6001C26.785 34.7853 27.0048 34.9321 27.2468 35.0323C27.4887 35.1326 27.748 35.1841 28.0098 35.1841C28.2717 35.1841 28.531 35.1326 28.7729 35.0323C29.0149 34.9321 29.2347 34.7853 29.4198 34.6001C29.605 34.4149 29.7519 34.1951 29.8521 33.9532C29.9523 33.7113 30.0039 33.452 30.0039 33.1901C30.0039 32.9282 29.9523 32.6689 29.8521 32.427C29.7519 32.1851 29.605 31.9653 29.4198 31.7801L21.6598 24.0001L29.4198 16.2401C30.1998 15.4601 30.1798 14.1801 29.4198 13.4201Z" fill="#231F20"/>
</svg>
