<svg width="48" height="48" viewBox="0 0 48 48" fill="none" xmlns="http://www.w3.org/2000/svg">
<path d="M12 35.9999H36C37.1 35.9999 38 36.8999 38 37.9999C38 39.0999 37.1 39.9999 36 39.9999H12C10.9 39.9999 10 39.0999 10 37.9999C10 36.8999 10.9 35.9999 12 35.9999ZM22.02 27.7999C21.2679 28.5422 20.2526 28.9568 19.1959 28.9531C18.1391 28.9493 17.1268 28.5275 16.38 27.7799L12 23.3999C10.9 22.2999 10.92 20.5199 12.06 19.4599C13.14 18.4199 14.86 18.4599 15.9 19.4999L19.2 22.7999L32.06 9.93988C33.14 8.85988 34.88 8.85988 35.96 9.93988L36.04 10.0199C37.12 11.0999 37.12 12.8599 36.02 13.9399L22.02 27.7999Z" fill="#231F20"/>
</svg>
