<svg width="48" height="48" viewBox="0 0 48 48" fill="none" xmlns="http://www.w3.org/2000/svg">
<path d="M18.58 13.42C18.3946 13.6051 18.2475 13.8248 18.1471 14.0668C18.0468 14.3087 17.9951 14.5681 17.9951 14.83C17.9951 15.092 18.0468 15.3513 18.1471 15.5933C18.2475 15.8352 18.3946 16.055 18.58 16.24L26.34 24L18.58 31.76C18.3948 31.9452 18.248 32.165 18.1478 32.407C18.0475 32.6489 17.996 32.9082 17.996 33.17C17.996 33.4319 18.0475 33.6912 18.1478 33.9331C18.248 34.1751 18.3948 34.3949 18.58 34.58C18.7652 34.7652 18.985 34.9121 19.2269 35.0123C19.4688 35.1125 19.7281 35.1641 19.99 35.1641C20.2519 35.1641 20.5112 35.1125 20.7531 35.0123C20.995 34.9121 21.2148 34.7652 21.4 34.58L30.58 25.4C30.7654 25.215 30.9125 24.9952 31.0129 24.7533C31.1132 24.5113 31.1649 24.252 31.1649 23.99C31.1649 23.7281 31.1132 23.4687 31.0129 23.2268C30.9125 22.9848 30.7654 22.7651 30.58 22.58L21.4 13.4C20.64 12.64 19.36 12.64 18.58 13.42Z" fill="#231F20"/>
</svg>
