<svg width="48" height="48" viewBox="0 0 48 48" fill="none" xmlns="http://www.w3.org/2000/svg">
<path d="M18.0002 10V10.76C16.3402 10.1 14.5602 9.76 12.7802 9.76C9.94018 9.76 7.10018 10.62 4.68018 12.34C3.66018 13.06 3.54018 14.52 4.42018 15.4L9.56018 20.54H11.7802V22.76C13.5002 24.48 15.7402 25.38 18.0002 25.48V30H14.0002C12.9002 30 12.0002 30.9 12.0002 32V36C12.0002 38.2 13.8002 40 16.0002 40H36.0002C39.3202 40 42.0002 37.32 42.0002 34V10C42.0002 8.9 41.1002 8 40.0002 8H20.0002C18.9002 8 18.0002 8.9 18.0002 10ZM15.7802 20.82V16.52H11.2202L9.14018 14.44C10.3019 13.9931 11.5355 13.7627 12.7802 13.76C15.4602 13.76 17.9602 14.8 19.8602 16.68L22.6802 19.5L22.2802 19.9C21.7777 20.4073 21.1796 20.81 20.5204 21.0846C19.8613 21.3593 19.1542 21.5004 18.4402 21.5C17.5002 21.5 16.5802 21.26 15.7802 20.82ZM38.0002 34C38.0002 35.1 37.1002 36 36.0002 36C34.9002 36 34.0002 35.1 34.0002 34V32C34.0002 30.9 33.1002 30 32.0002 30H22.0002V24.82C23.1402 24.36 24.2002 23.68 25.1202 22.76L25.5202 22.36L31.1802 28H34.0002V25.18L22.0002 13.24V12H38.0002V34Z" fill="#231F20"/>
</svg>
