<svg width="48" height="48" viewBox="0 0 48 48" fill="none" xmlns="http://www.w3.org/2000/svg">
<path d="M24 23.1C20.36 19.7 15.76 17.32 10.64 16.4C8.22 15.98 6 17.9 6 20.36V32.84C6 36.2 7.44 37.96 9.42 38.22C14.42 38.86 18.96 40.92 22.68 43.96C23.38 44.54 24.52 44.6 25.22 44.04C28.96 40.98 33.54 38.88 38.58 38.24C40.46 37.98 42 36.12 42 34.2V20.36C42 17.9 39.78 15.98 37.36 16.4C32.24 17.32 27.64 19.7 24 23.1ZM24 16C27.32 16 30 13.32 30 10C30 6.68 27.32 4 24 4C20.68 4 18 6.68 18 10C18 13.32 20.68 16 24 16Z" fill="#231F20"/>
</svg>
