<svg width="48" height="48" viewBox="0 0 48 48" fill="none" xmlns="http://www.w3.org/2000/svg">
<path d="M23.98 4C12.94 4 4 12.96 4 24C4 35.04 12.94 44 23.98 44C35.04 44 44 35.04 44 24C44 12.96 35.04 4 23.98 4ZM30.44 34.78L24 30.9L17.56 34.78C17.3915 34.8822 17.1967 34.9326 16.9997 34.9248C16.8028 34.9171 16.6125 34.8515 16.4526 34.7364C16.2927 34.6212 16.1702 34.4616 16.1003 34.2773C16.0305 34.093 16.0165 33.8922 16.06 33.7L17.76 26.38L12.1 21.48C11.953 21.349 11.8474 21.178 11.7964 20.9878C11.7453 20.7976 11.7509 20.5967 11.8125 20.4097C11.8742 20.2227 11.9891 20.0578 12.1432 19.9352C12.2973 19.8127 12.4839 19.7379 12.68 19.72L20.16 19.08L23.08 12.18C23.42 11.36 24.58 11.36 24.92 12.18L27.84 19.06L35.32 19.7C35.5169 19.7169 35.7043 19.7918 35.8587 19.9151C36.0131 20.0385 36.1274 20.2048 36.1873 20.3931C36.2472 20.5814 36.25 20.7833 36.1953 20.9731C36.1406 21.163 36.0309 21.3324 35.88 21.46L30.22 26.36L31.92 33.7C32.12 34.56 31.2 35.24 30.44 34.78Z" fill="#231F20"/>
</svg>
