<svg width="48" height="48" viewBox="0 0 48 48" fill="none" xmlns="http://www.w3.org/2000/svg">
<path d="M16.2398 18.5799L23.9998 26.3399L31.7598 18.5799C31.945 18.3947 32.1648 18.2478 32.4067 18.1476C32.6487 18.0474 32.908 17.9958 33.1698 17.9958C33.4317 17.9958 33.691 18.0474 33.9329 18.1476C34.1748 18.2478 34.3947 18.3947 34.5798 18.5799C34.765 18.7651 34.9119 18.9849 35.0121 19.2268C35.1123 19.4687 35.1639 19.728 35.1639 19.9899C35.1639 20.2518 35.1123 20.511 35.0121 20.753C34.9119 20.9949 34.765 21.2147 34.5798 21.3999L25.3998 30.5799C25.2148 30.7653 24.995 30.9124 24.7531 31.0128C24.5111 31.1131 24.2518 31.1648 23.9898 31.1648C23.7279 31.1648 23.4685 31.1131 23.2266 31.0128C22.9846 30.9124 22.7649 30.7653 22.5798 30.5799L13.3998 21.3999C13.2144 21.2149 13.0673 20.9951 12.967 20.7531C12.8666 20.5112 12.8149 20.2518 12.8149 19.9899C12.8149 19.728 12.8666 19.4686 12.967 19.2266C13.0673 18.9847 13.2144 18.7649 13.3998 18.5799C14.1798 17.8199 15.4598 17.7999 16.2398 18.5799Z" fill="#231F20"/>
</svg>
