<svg width="48" height="48" viewBox="0 0 48 48" fill="none" xmlns="http://www.w3.org/2000/svg">
<path d="M35 9C31.1 9 26.9 9.8 24 12C21.1 9.8 16.9 9 13 9C10.1 9 7.02 9.44 4.44 10.58C2.98 11.24 2 12.66 2 14.28V36.84C2 39.44 4.44 41.36 6.96 40.72C8.92 40.22 11 40 13 40C16.12 40 19.44 40.52 22.12 41.84C23.32 42.44 24.68 42.44 25.86 41.84C28.54 40.5 31.86 40 34.98 40C36.98 40 39.06 40.22 41.02 40.72C43.54 41.38 45.98 39.46 45.98 36.84V14.28C45.98 12.66 45 11.24 43.54 10.58C40.98 9.44 37.9 9 35 9ZM42 34.46C42 35.72 40.84 36.64 39.6 36.42C38.1 36.14 36.54 36.02 35 36.02C31.6 36.02 26.7 37.32 24 39.02V16C26.7 14.3 31.6 13 35 13C36.84 13 38.66 13.18 40.4 13.56C41.32 13.76 42 14.58 42 15.52V34.46Z" fill="#231F20"/>
<path d="M27.9598 22.02C27.3198 22.02 26.7398 21.62 26.5398 20.98C26.2798 20.2 26.7198 19.34 27.4998 19.1C30.5798 18.1 34.5598 17.78 38.2198 18.2C39.0398 18.3 39.6398 19.04 39.5398 19.86C39.4398 20.68 38.6998 21.28 37.8798 21.18C34.6398 20.8 31.0998 21.1 28.4198 21.96C28.2598 21.98 28.0998 22.02 27.9598 22.02ZM27.9598 27.34C27.3198 27.34 26.7398 26.94 26.5398 26.3C26.2798 25.52 26.7198 24.66 27.4998 24.42C30.5598 23.42 34.5598 23.1 38.2198 23.52C39.0398 23.62 39.6398 24.36 39.5398 25.18C39.4398 26 38.6998 26.6 37.8798 26.5C34.6398 26.12 31.0998 26.42 28.4198 27.28C28.2693 27.3177 28.1149 27.3379 27.9598 27.34ZM27.9598 32.66C27.3198 32.66 26.7398 32.26 26.5398 31.62C26.2798 30.84 26.7198 29.98 27.4998 29.74C30.5598 28.74 34.5598 28.42 38.2198 28.84C39.0398 28.94 39.6398 29.68 39.5398 30.5C39.4398 31.32 38.6998 31.9 37.8798 31.82C34.6398 31.44 31.0998 31.74 28.4198 32.6C28.2693 32.6377 28.1149 32.6579 27.9598 32.66Z" fill="#231F20"/>
</svg>
