<svg width="48" height="48" viewBox="0 0 48 48" fill="none" xmlns="http://www.w3.org/2000/svg">
<path d="M15.8401 15.08C14.2401 14.4 13.5601 12.42 14.5201 10.98C16.4601 8.1 19.7001 6 23.9801 6C28.6801 6 31.9001 8.14 33.5401 10.82C34.9401 13.12 35.7601 17.42 33.6001 20.62C31.2001 24.16 28.9001 25.24 27.6601 27.52C27.3601 28.06 27.1801 28.5 27.0601 29.4C26.8801 30.86 25.6801 32 24.2001 32C22.4601 32 21.0401 30.5 21.2401 28.76C21.3601 27.74 21.6001 26.68 22.1601 25.68C23.7001 22.9 26.6601 21.26 28.3801 18.8C30.2001 16.22 29.1801 11.4 24.0201 11.4C21.6801 11.4 20.1601 12.62 19.2201 14.08C18.5201 15.22 17.0601 15.58 15.8401 15.08ZM28.0001 40C28.0001 42.2 26.2001 44 24.0001 44C21.8001 44 20.0001 42.2 20.0001 40C20.0001 37.8 21.8001 36 24.0001 36C26.2001 36 28.0001 37.8 28.0001 40Z" fill="#231F20"/>
</svg>
