<svg width="48" height="48" viewBox="0 0 48 48" fill="none" xmlns="http://www.w3.org/2000/svg">
<path d="M16.2398 29.4201L23.9998 21.6601L31.7598 29.4201C31.945 29.6053 32.1648 29.7521 32.4067 29.8523C32.6487 29.9526 32.908 30.0041 33.1698 30.0041C33.4317 30.0041 33.691 29.9526 33.9329 29.8523C34.1748 29.7521 34.3947 29.6053 34.5798 29.4201C34.765 29.2349 34.9119 29.0151 35.0121 28.7732C35.1123 28.5313 35.1639 28.272 35.1639 28.0101C35.1639 27.7482 35.1123 27.4889 35.0121 27.247C34.9119 27.0051 34.765 26.7853 34.5798 26.6001L25.3998 17.4201C25.2148 17.2347 24.995 17.0876 24.7531 16.9872C24.5111 16.8869 24.2518 16.8352 23.9898 16.8352C23.7279 16.8352 23.4685 16.8869 23.2266 16.9872C22.9846 17.0876 22.7649 17.2347 22.5798 17.4201L13.3998 26.6001C13.2144 26.7851 13.0673 27.0049 12.967 27.2468C12.8666 27.4888 12.8149 27.7482 12.8149 28.0101C12.8149 28.272 12.8666 28.5314 12.967 28.7733C13.0673 29.0153 13.2144 29.2351 13.3998 29.4201C14.1798 30.1801 15.4598 30.2001 16.2398 29.4201Z" fill="#231F20"/>
</svg>
