<svg width="48" height="48" viewBox="0 0 48 48" fill="none" xmlns="http://www.w3.org/2000/svg">
<path d="M24 4C12.96 4 4 12.96 4 24C4 35.04 12.96 44 24 44C35.04 44 44 35.04 44 24C44 12.96 35.04 4 24 4ZM18.58 32.58L11.4 25.4C11.2148 25.2148 11.068 24.995 10.9677 24.7531C10.8675 24.5112 10.816 24.2519 10.816 23.99C10.816 23.7281 10.8675 23.4688 10.9677 23.2269C11.068 22.985 11.2148 22.7652 11.4 22.58C11.5852 22.3948 11.805 22.248 12.0469 22.1477C12.2888 22.0475 12.5481 21.996 12.81 21.996C13.0719 21.996 13.3312 22.0475 13.5731 22.1477C13.815 22.248 14.0348 22.3948 14.22 22.58L20 28.34L33.76 14.58C34.134 14.206 34.6411 13.996 35.17 13.996C35.6989 13.996 36.206 14.206 36.58 14.58C36.954 14.954 37.164 15.4611 37.164 15.99C37.164 16.5189 36.954 17.026 36.58 17.4L21.4 32.58C21.215 32.7654 20.9952 32.9125 20.7532 33.0129C20.5113 33.1132 20.2519 33.1649 19.99 33.1649C19.7281 33.1649 19.4687 33.1132 19.2268 33.0129C18.9848 32.9125 18.765 32.7654 18.58 32.58Z" fill="#231F20"/>
</svg>
