<svg width="48" height="48" viewBox="0 0 48 48" fill="none" xmlns="http://www.w3.org/2000/svg">
<path d="M32.9601 20.8199C32.1801 21.5999 30.8801 21.5999 30.1001 20.8199L21.1601 11.8999L7.06007 25.9799L5.74007 24.7199C4.61647 23.5949 3.98535 22.0699 3.98535 20.4799C3.98535 18.8899 4.61647 17.3649 5.74007 16.2399L14.2201 7.75991C15.3451 6.63631 16.8701 6.00519 18.4601 6.00519C20.0501 6.00519 21.5751 6.63631 22.7001 7.75991L32.9601 17.9999C33.7401 18.7799 33.7401 20.0399 32.9601 20.8199ZM34.3601 16.5799C35.9201 18.1399 35.9201 20.6799 34.3601 22.2399C31.8201 24.7799 29.1401 22.6799 28.7001 22.2399L21.1801 14.7199L10.0401 25.8599C9.85466 26.0449 9.70757 26.2647 9.60721 26.5067C9.50684 26.7486 9.45518 27.008 9.45518 27.2699C9.45518 27.5318 9.50684 27.7912 9.60721 28.0332C9.70757 28.2751 9.85466 28.4949 10.0401 28.6799C10.8201 29.4599 12.0801 29.4599 12.8801 28.6799L22.1201 19.4399L23.5401 20.8599L14.3001 30.0999C14.1147 30.2849 13.9676 30.5047 13.8672 30.7467C13.7668 30.9886 13.7152 31.248 13.7152 31.5099C13.7152 31.7718 13.7668 32.0312 13.8672 32.2732C13.9676 32.5151 14.1147 32.7349 14.3001 32.9199C15.0801 33.6999 16.3401 33.6999 17.1401 32.9199L26.3801 23.6799L27.8001 25.0999L18.5601 34.3399C18.3749 34.5251 18.228 34.7449 18.1278 34.9868C18.0276 35.2287 17.976 35.488 17.976 35.7499C17.976 36.0118 18.0276 36.2711 18.1278 36.513C18.228 36.7549 18.3749 36.9747 18.5601 37.1599C18.7452 37.3451 18.9651 37.492 19.207 37.5922C19.4489 37.6924 19.7082 37.7439 19.9701 37.7439C20.2319 37.7439 20.4912 37.6924 20.7332 37.5922C20.9751 37.492 21.1949 37.3451 21.3801 37.1599L30.6201 27.9199L32.0401 29.3399L22.8001 38.5799C22.6149 38.7651 22.468 38.9849 22.3678 39.2268C22.2676 39.4687 22.216 39.728 22.216 39.9899C22.216 40.2518 22.2676 40.5111 22.3678 40.753C22.468 40.9949 22.6149 41.2147 22.8001 41.3999C23.174 41.7739 23.6812 41.9839 24.2101 41.9839C24.4719 41.9839 24.7312 41.9324 24.9732 41.8322C25.2151 41.7319 25.4349 41.5851 25.6201 41.3999L42.2601 24.7199C43.3837 23.5949 44.0148 22.0699 44.0148 20.4799C44.0148 18.8899 43.3837 17.3649 42.2601 16.2399L33.7801 7.75991C32.676 6.6563 31.1853 6.02644 29.6244 6.00404C28.0635 5.98163 26.5554 6.56845 25.4201 7.63991L34.3601 16.5799Z" fill="#231F20"/>
</svg>
