<svg width="48" height="48" viewBox="0 0 48 48" fill="none" xmlns="http://www.w3.org/2000/svg">
<path d="M40 24C40 22.48 40.86 21.16 42.12 20.48C43.32 19.82 44 18.46 44 17.08V12C44 9.8 42.2 8 40 8H8C5.8 8 4.02 9.78 4.02 11.98V17.08C4.02 18.46 4.68 19.82 5.9 20.46C7.16 21.16 8 22.48 8 24C8 25.52 7.14 26.86 5.88 27.52C4.68 28.18 4 29.54 4 30.92V36C4 38.2 5.8 40 8 40H40C42.2 40 44 38.2 44 36V30.92C44 29.54 43.32 28.18 42.12 27.52C40.86 26.84 40 25.52 40 24ZM29 32.2L24 29L19 32.22C18.24 32.7 17.26 32 17.5 31.12L19 25.36L14.4 21.6C14.2442 21.4714 14.1308 21.2989 14.0744 21.105C14.018 20.911 14.0213 20.7046 14.0839 20.5125C14.1465 20.3205 14.2654 20.1517 14.4253 20.0282C14.5851 19.9047 14.7784 19.8321 14.98 19.82L20.9 19.48L23.06 13.98C23.4 13.14 24.6 13.14 24.92 13.98L27.08 19.5L33 19.84C33.9 19.9 34.28 21.04 33.58 21.62L28.98 25.38L30.5 31.1C30.74 32 29.76 32.7 29 32.2Z" fill="#231F20"/>
</svg>
