<svg width="48" height="48" viewBox="0 0 48 48" fill="none" xmlns="http://www.w3.org/2000/svg">
<path d="M40 4H8C5.8 4 4 5.8 4 8V32C4 34.2 5.8 36 8 36H36L44 44V8C44 5.8 42.2 4 40 4ZM34 28H14C12.9 28 12 27.1 12 26C12 24.9 12.9 24 14 24H34C35.1 24 36 24.9 36 26C36 27.1 35.1 28 34 28ZM34 22H14C12.9 22 12 21.1 12 20C12 18.9 12.9 18 14 18H34C35.1 18 36 18.9 36 20C36 21.1 35.1 22 34 22ZM34 16H14C12.9 16 12 15.1 12 14C12 12.9 12.9 12 14 12H34C35.1 12 36 12.9 36 14C36 15.1 35.1 16 34 16Z" fill="#231F20"/>
</svg>
