<svg width="48" height="48" viewBox="0 0 48 48" fill="none" xmlns="http://www.w3.org/2000/svg">
<path d="M10 26H32.34L22.58 35.76C21.8 36.54 21.8 37.82 22.58 38.6C23.36 39.38 24.62 39.38 25.4 38.6L38.58 25.42C38.7654 25.2349 38.9125 25.0152 39.0129 24.7732C39.1132 24.5313 39.1649 24.2719 39.1649 24.01C39.1649 23.748 39.1132 23.4887 39.0129 23.2467C38.9125 23.0048 38.7654 22.785 38.58 22.6L25.42 9.39996C25.2348 9.21479 25.015 9.06791 24.7731 8.9677C24.5312 8.86749 24.2719 8.81592 24.01 8.81592C23.7481 8.81592 23.4888 8.86749 23.2469 8.9677C23.005 9.06791 22.7852 9.21479 22.6 9.39996C22.4148 9.58512 22.268 9.80494 22.1677 10.0469C22.0675 10.2888 22.016 10.5481 22.016 10.81C22.016 11.0718 22.0675 11.3311 22.1677 11.573C22.268 11.815 22.4148 12.0348 22.6 12.22L32.34 22H10C8.9 22 8 22.9 8 24C8 25.1 8.9 26 10 26Z" fill="#231F20"/>
</svg>
