<svg width="43" height="43" viewBox="0 0 43 43" fill="none" xmlns="http://www.w3.org/2000/svg">
<path d="M24.9463 21.1411L20.1174 18.8879C19.696 18.6922 19.3499 18.9115 19.3499 19.3781V23.6222C19.3499 24.0887 19.696 24.308 20.1174 24.1124L24.9442 21.8592C25.3677 21.6614 25.3677 21.3389 24.9463 21.1411ZM21.4999 0.860107C10.1006 0.860107 0.859863 10.1008 0.859863 21.5001C0.859863 32.8994 10.1006 42.1401 21.4999 42.1401C32.8992 42.1401 42.1399 32.8994 42.1399 21.5001C42.1399 10.1008 32.8992 0.860107 21.4999 0.860107ZM21.4999 29.8851C10.9348 29.8851 10.7499 28.9327 10.7499 21.5001C10.7499 14.0676 10.9348 13.1151 21.4999 13.1151C32.065 13.1151 32.2499 14.0676 32.2499 21.5001C32.2499 28.9327 32.065 29.8851 21.4999 29.8851Z" fill="#231F20"/>
</svg>
